<svg xmlns="http://www.w3.org/2000/svg" width="218" height="58" viewBox="0 0 218 58">
    <g fill="none" fill-rule="evenodd">
        <g>
            <g>
                <g>
                    <path fill="#0D294A" d="M103.034 24.785c.37.328.839.366 1.409.112.568-.253 1.18-.695 1.834-1.322.654-.627 1.302-1.396 1.942-2.307.64-.91 1.216-1.844 1.728-2.8.313-.597.562-1.18.748-1.748.184-.566.291-1.224.32-1.971.056-.418.027-.791-.086-1.12-.085-.299-.242-.589-.47-.874-.227-.283-.568-.5-1.024-.65-.199-.059-.398-.096-.597-.111-.2-.015-.413-.008-.64.022-.456.09-.939.3-1.451.628.341.06.704.217 1.088.47.384.254.619.68.705 1.276.027.449 0 .814-.086 1.098-.085.285-.2.509-.342.673-.142.164-.292.276-.447.335-.157.06-.292.09-.406.09-.342.06-.612.12-.81.18-.485.209-1.019.665-1.601 1.366-.584.702-1.082 1.478-1.494 2.33-.413.85-.683 1.68-.81 2.486-.129.807.034 1.419.49 1.837m7.563-14.605c.91.368 1.669.906 2.277 1.612.523.614.923 1.45 1.2 2.51.275 1.06.22 2.433-.166 4.121-.165.615-.387 1.26-.662 1.934-.222.584-.518 1.22-.89 1.911-.373.691-.835 1.39-1.387 2.095-.718.891-1.497 1.651-2.339 2.28-.842.63-1.704 1.09-2.587 1.382-.884.29-1.766.375-2.649.253-.884-.122-1.697-.49-2.443-1.105-.662-.522-1.125-1.305-1.386-2.349-.263-1.044-.331-2.164-.207-3.361.124-1.198.448-2.395.972-3.593.525-1.197 1.256-2.225 2.195-3.085.11-.061.206-.13.29-.207.082-.077.165-.146.247-.207 0-.245.035-.476.104-.69.069-.216.145-.416.228-.6.11-.214.22-.414.331-.599.69-1.013 1.434-1.695 2.235-2.049.8-.353 1.545-.559 2.235-.621.8-.03 1.6.092 2.402.368M130.387 9.994c.359.204.608.46.749.767.14.307.205.635.192.986-.014.351-.071.702-.173 1.053-.102.35-.218.672-.346.964l-.307.614c-.077.175-.16.343-.25.504-.09.16-.172.314-.249.46-.384.614-.852 1.403-1.402 2.368-.551.964-1.05 1.943-1.498 2.937-.448.994-.767 1.928-.96 2.805-.192.877-.134 1.55.173 2.017.025.059.064.132.115.22.05.117.102.262.154.437.025.293-.064.556-.269.79-.103.117-.218.19-.346.219-.18.116-.403.138-.672.066-.269-.073-.506-.168-.71-.285-.41-.234-.743-.54-.999-.92-.153-.176-.282-.38-.384-.614-.153-.322-.282-.687-.384-1.097-.103-.409-.153-.89-.153-1.446-.436.73-.884 1.402-1.345 2.016-.46.614-.935 1.126-1.42 1.534-.18.147-.398.279-.654.395-.205.117-.448.212-.73.285-.281.072-.589.094-.921.066-.692-.058-1.248-.24-1.67-.548-.423-.307-.75-.636-.98-.986-.23-.351-.391-.687-.48-1.01-.09-.32-.135-.525-.135-.612-.101-.555-.115-1.213-.038-1.974.077-.759.281-1.628.615-2.608.332-.979.8-2.082 1.401-3.31.602-1.227 1.389-2.586 2.362-4.077.102-.175.269-.408.5-.701.23-.292.492-.57.787-.833.294-.263.608-.46.94-.592.333-.131.679-.094 1.038.11.358.204.607.46.749.767.14.307.204.635.192.986-.014.351-.071.702-.173 1.053-.102.35-.218.672-.346.964l-.307.614c-.077.175-.16.343-.25.504-.09.16-.172.314-.249.46-.282.468-.615 1.023-.999 1.666-.384.644-.755 1.33-1.114 2.06-.23.439-.448.863-.652 1.272-.18.38-.353.774-.519 1.184-.167.409-.288.818-.365 1.227-.128.526-.172.921-.134 1.184.038.263.12.453.25.57.127.117.307.175.537.175.359-.029.832-.402 1.421-1.118.589-.715 1.197-1.557 1.824-2.521s1.216-1.929 1.767-2.893c.55-.965.979-1.724 1.287-2.28.307-.584.652-1.198 1.036-1.84.384-.644.794-1.317 1.23-2.018.101-.175.268-.408.499-.701.23-.292.492-.57.787-.833.294-.263.608-.46.94-.592.333-.131.679-.094 1.038.11" transform="translate(-77 -20) translate(77 20)"/>
                    <path class="logo-color" fill="#FFF" d="M22.284 5.677c.138-.315.172-.603.104-.86-.07-.26-.131-.46-.186-.603-.221-.316-.483-.566-.785-.753-.304-.186-.69-.237-1.158-.151-.469.058-.847.273-1.136.646-.29.373-.462.631-.517.774-.082.201-.165.388-.248.56-.138.373-.207.732-.207 1.076.22.029.469.057.745.086.22.029.46.05.723.065.261.014.517.021.765.021.274 0 .626-.057 1.053-.172.427-.115.709-.344.847-.69m4.283-2.741c.084.33.126.697.126 1.103 0 .405-.07.863-.21 1.374-.167.57-.434 1.065-.797 1.486-.364.421-.756.765-1.175 1.035-.42.27-.833.49-1.239.653-.405.166-.749.293-1.028.383-1.007.211-2 .346-2.98.406.42 1.29.896 2.74 1.427 4.346.532 1.607.91 3.25 1.133 4.932.057.511.07 1.29.043 2.342-.03 1.05-.267 2.236-.714 3.558-.364.81-.798 1.591-1.301 2.342-.448.63-1.015 1.276-1.7 1.937-.686.66-1.49 1.2-2.413 1.62-.477.241-.938.435-1.385.586-.448.15-.923.27-1.427.36-.504.091-1.064.15-1.679.18-.616.03-1.329.03-2.14 0-1.175-.06-2.204-.232-3.085-.518-.881-.285-1.644-.645-2.287-1.08-.644-.436-1.183-.916-1.616-1.441-.435-.526-.791-1.06-1.07-1.6C.377 25.68.027 24.268 0 22.707c0-.93.063-1.778.19-2.545.125-.765.286-1.463.481-2.094.112-.3.3-.728.567-1.283.266-.555.637-1.119 1.113-1.69.475-.569 1.07-1.103 1.783-1.598.714-.495 1.56-.833 2.54-1.013.754-.12 1.433-.15 2.034-.09.603.06 1.113.165 1.533.315.504.15.923.345 1.259.585.56.331 1.007.751 1.343 1.261.308.421.538.954.692 1.6.154.645.12 1.403-.104 2.274-.169.54-.413.968-.735 1.283-.322.316-.671.556-1.05.72-.377.166-.748.27-1.112.316-.363.045-.671.053-.923.023-.224-.03-.385-.098-.482-.203-.099-.105-.154-.21-.168-.315-.015-.105-.015-.218 0-.338.014-.12.034-.21.063-.27.251-.48.447-.998.587-1.554.14-.555.175-1.059.106-1.51-.07-.45-.252-.824-.546-1.125-.294-.3-.763-.45-1.407-.45-.42.06-.812.255-1.175.585-.308.3-.63.773-.965 1.42-.336.645-.602 1.598-.797 2.858-.392 2.584-.154 4.565.713 5.946.867 1.38 2.266 2.191 4.197 2.432 1.427.15 2.616.03 3.568-.36.95-.39 1.72-.856 2.308-1.397.7-.63 1.245-1.38 1.637-2.251.195-.48.321-.969.377-1.464.056-.496.085-.96.085-1.396 0-.435-.022-.818-.064-1.15-.042-.329-.077-.584-.105-.765-.195-.81-.427-1.636-.692-2.476-.266-.841-.525-1.704-.777-2.59-.252-.886-.482-1.764-.692-2.635-.21-.87-.356-1.727-.44-2.567-.168-.03-.336-.052-.504-.068-.169-.015-.323-.037-.462-.067-1.707-.27-3.099-.593-4.176-.968-1.077-.376-1.783-.653-2.12-.834-.895-.39-1.7-.87-2.413-1.441-.713-.57-1.154-1.276-1.322-2.117-.083-.33-.126-.66-.126-.991 0-.3.043-.614.126-.945.084-.33.252-.66.504-.991.084-.12.308-.308.671-.563.364-.255.825-.278 1.385-.068.028 0 .084.03.168.09.056.06.112.128.168.203.056.075.111.173.168.292.308.63.678 1.172 1.112 1.622.434.45.86.826 1.28 1.126.504.33 1.021.616 1.553.856 1.007.42 2.406.855 4.197 1.305.196-.93.476-1.71.84-2.341.363-.63.776-1.141 1.238-1.531.461-.39.937-.69 1.427-.901.489-.21.944-.376 1.364-.496.587-.18 1.175-.285 1.763-.315.503-.03 1.048.008 1.636.113.588.105 1.147.353 1.68.743.195.15.453.39.776.72.32.33.552.766.692 1.307M38.563 9.994c.359.204.608.46.75.767.14.307.204.635.191.986-.013.351-.07.702-.173 1.053-.102.35-.218.672-.345.964l-.308.614c-.077.175-.16.343-.249.504-.09.16-.173.314-.25.46-.384.614-.851 1.403-1.401 2.368-.552.964-1.05 1.943-1.499 2.937-.448.994-.767 1.928-.96 2.805-.192.877-.134 1.55.173 2.017.025.059.064.132.115.22.051.117.103.262.154.437.025.293-.064.556-.269.79-.102.117-.218.19-.346.219-.179.116-.403.138-.672.066-.269-.073-.506-.168-.71-.285-.41-.234-.743-.54-.998-.92-.154-.176-.282-.38-.385-.614-.153-.322-.282-.687-.384-1.097-.102-.409-.153-.89-.153-1.446-.436.73-.884 1.402-1.344 2.016-.461.614-.936 1.126-1.421 1.534-.18.147-.398.279-.654.395-.205.117-.448.212-.729.285-.282.072-.59.094-.922.066-.691-.058-1.248-.24-1.67-.548-.423-.307-.75-.636-.98-.986-.23-.351-.39-.687-.48-1.01-.09-.32-.134-.525-.134-.612-.102-.555-.116-1.213-.038-1.974.076-.759.28-1.628.614-2.608.332-.979.8-2.082 1.402-3.31.601-1.227 1.388-2.586 2.361-4.077.102-.175.27-.408.5-.701.23-.292.492-.57.787-.833.294-.263.608-.46.94-.592.333-.131.679-.094 1.038.11.359.204.607.46.749.767.14.307.205.635.192.986-.014.351-.07.702-.173 1.053-.102.35-.218.672-.346.964l-.307.614c-.077.175-.16.343-.25.504-.09.16-.172.314-.249.46-.282.468-.615 1.023-.998 1.666-.385.644-.756 1.33-1.114 2.06-.23.439-.448.863-.653 1.272-.18.38-.352.774-.519 1.184-.167.409-.288.818-.365 1.227-.128.526-.172.921-.134 1.184.038.263.121.453.25.57.128.117.307.175.537.175.359-.029.832-.402 1.421-1.118.589-.715 1.197-1.557 1.824-2.521.628-.964 1.216-1.929 1.767-2.893.55-.965.98-1.724 1.287-2.28.307-.584.653-1.198 1.037-1.84.383-.644.793-1.317 1.229-2.018.102-.175.268-.408.499-.701.23-.292.492-.57.787-.833.294-.263.608-.46.941-.592.332-.131.678-.094 1.037.11M52.679 10.498c.704.312 1.191.76 1.463 1.34.27.583.365 1.243.284 1.981-.055.369-.136.752-.244 1.15-.081.368-.197.78-.345 1.234-.15.454-.332.952-.549 1.49-.217.455-.433.916-.65 1.385-.216.468-.473.944-.771 1.426-.244.483-.603 1.043-1.076 1.681-.475.64-1.01 1.257-1.605 1.852-.596.597-1.239 1.129-1.929 1.598-.691.468-1.375.76-2.051.872-.298.058-.596.086-.894.086-.244 0-.501-.028-.772-.086-.27-.056-.514-.17-.73-.34-.299-.227-.455-.504-.468-.83-.014-.326.02-.59.102-.788.054-.142.135-.24.243-.298.108-.057.217-.1.325-.128.108 0 .244.015.406.043.352 0 .725-.171 1.118-.512.392-.34.765-.723 1.116-1.149.407-.482.799-1.036 1.178-1.66.46-.767 1.05-1.917 1.767-3.45.717-1.532 1.293-3.292 1.726-5.28-.38.143-.725.314-1.035.512-.312.198-.59.383-.833.554-.298.227-.556.44-.772.638-.866.795-1.7 1.76-2.498 2.895-.799 1.136-1.537 2.3-2.213 3.492-.46 1.22-.86 2.413-1.199 3.576-.338 1.164-.623 2.272-.853 3.321-.23 1.05-.406 2.023-.527 2.917-.123.894-.197 1.653-.224 2.278-.027.142-.04.27-.04.383v.681c-.028.682-.136 1.178-.325 1.49-.109.199-.204.355-.285.469-.298.368-.616.575-.954.617-.339.043-.657.022-.955-.064-.352-.113-.717-.298-1.096-.553-.433-.313-.745-.717-.934-1.214-.19-.497-.298-1.071-.326-1.724-.026-.199-.026-.412 0-.638 0-.2.014-.398.041-.597.027-.199.068-.412.122-.638.136-1.051.359-2.15.67-3.3.312-1.15.644-2.22.996-3.215.406-1.135.838-2.257 1.299-3.364.189-.482.42-1.05.69-1.703.27-.652.575-1.34.914-2.065.339-.724.697-1.454 1.077-2.193.379-.737.771-1.433 1.178-2.086.053-.113.135-.226.244-.34.08-.113.168-.241.263-.384.095-.141.21-.298.346-.468.135-.142.305-.312.507-.511.203-.198.427-.383.67-.553.244-.171.508-.305.792-.405.285-.099.562-.135.833-.107.623.143.995.512 1.117 1.108.122.596-.007 1.207-.385 1.83-.299.341-.556.71-.772 1.108.135-.142.25-.27.345-.384.094-.113.196-.227.304-.34.325-.398.664-.752 1.016-1.065.297-.284.65-.567 1.056-.852.406-.283.825-.51 1.259-.68.081-.029.216-.078.406-.15.19-.07.413-.12.67-.149.257-.028.535-.028.833 0 .297.03.61.114.934.256M61.614 14.433c-.335.385-.657.786-.963 1.201-.308.385-.628.816-.963 1.29-.335.474-.657 1.007-.963 1.6 1.171-.177 2.142-.489 2.91-.933.767-.445 1.388-.927 1.863-1.446.474-.518.817-1.008 1.026-1.468.21-.459.356-.807.44-1.044.11-.357.167-.668.167-.934 0-.267-.014-.504-.042-.712-.475.089-1.005.327-1.591.712-.586.386-1.215.963-1.884 1.734m5.699-3.848c.25.212.459.484.625.818.138.273.25.636.334 1.09.083.456.083.986 0 1.592-.196 1.122-.599 2.122-1.209 3-.611.88-1.306 1.624-2.083 2.23-.778.606-1.577 1.084-2.396 1.431-.819.35-1.52.554-2.104.614-.611.062-1.118.053-1.52-.023-.404-.075-.716-.188-.938-.34-.111.303-.222.621-.333.955l-.27.977c-.099.349-.161.736-.189 1.16 0 .212.014.409.042.59.028.153.063.334.104.546.042.213.118.41.23.591.36.728.888 1.024 1.583.887.694-.136 1.389-.447 2.083-.932.805-.546 1.652-1.288 2.541-2.228.055-.03.125-.075.209-.137.166-.12.333-.181.5-.181.166 0 .305.038.416.113.11.076.209.16.292.25.083.122.152.258.208.41.027.152.042.303.042.454 0 .152-.021.326-.063.523-.041.198-.118.402-.23.614-.138.212-.297.41-.478.591-.181.182-.354.334-.52.455-.334.243-.682.454-1.042.636-.307.153-.653.319-1.042.5-.389.182-.778.303-1.166.364-.473.091-.924.152-1.355.182-.43.03-.924.015-1.478-.045-.251-.061-.48-.114-.688-.16-.209-.045-.424-.098-.646-.159-.75-.242-1.354-.591-1.812-1.045-.459-.455-.799-.91-1.02-1.364-.25-.455-.411-.962-.48-1.524-.069-.56-.09-1.12-.062-1.682.027-.56.096-1.091.208-1.592.11-.5.222-.916.334-1.25.193-.546.416-1.076.666-1.59.25-.516.444-.895.583-1.138.417-.758.86-1.455 1.333-2.092.472-.636.93-1.197 1.375-1.682.556-.606 1.194-1.152 1.916-1.637.612-.424 1.334-.795 2.167-1.114.833-.318 1.735-.461 2.708-.432.334 0 .653.03.959.091.277.061.562.136.854.227.291.091.562.243.812.456" transform="translate(-77 -20) translate(77 20)"/>
                    <path class="logo-color" fill="#FFF" d="M80.079 11.492c0 .636-.138 1.25-.413 1.842-.028.119-.082.237-.165.355-.055.119-.124.237-.206.355-.083.119-.165.252-.248.4l-.618.888c-.193.266-.392.57-.598.91-.207.34-.42.673-.64.999-.33.532-.66 1.095-.99 1.687-.33.592-.639 1.184-.928 1.776-.288.592-.536 1.169-.743 1.731-.206.563-.337 1.08-.391 1.554-.083.621.013 1.11.288 1.465.055.03.11.089.165.177.11.149.179.311.207.49.027.088.013.192-.042.31l-.206.333c-.082.133-.22.259-.412.377-.22.118-.461.133-.722.044-.262-.088-.516-.206-.764-.355-.303-.148-.591-.34-.866-.577-.193-.207-.371-.444-.536-.71-.165-.267-.303-.577-.413-.933-.138-.488-.206-1.02-.206-1.642 0-.622.103-1.34.31-2.153.206-.814.53-1.732.97-2.753.438-1.021 1.03-2.153 1.773-3.396.137-.237.274-.459.412-.666.138-.207.275-.429.413-.666-.248-.03-.495-.045-.743-.045-.247 0-.509-.014-.784-.044-.192.947-.536 1.82-1.03 2.62-.496.798-1.005 1.48-1.527 2.042-.276.266-.57.459-.887.576-.317.12-.618.194-.907.223-.289.03-.544.007-.764-.067-.22-.073-.37-.184-.453-.333-.165-.236-.193-.444-.082-.621.109-.178.219-.296.33-.355.962-.563 1.78-1.31 2.454-2.242.673-.933 1.176-1.887 1.506-2.864-.22-.267-.413-.592-.578-.977-.166-.384-.234-.858-.207-1.42.028-.71.166-1.214.413-1.51.247-.296.481-.488.702-.577.109-.06.357-.096.742-.111s.77.155 1.155.51c.22.208.357.43.412.666.055.238.062.466.021.689-.042.221-.117.436-.227.643-.11.208-.22.385-.33.533-.055.09-.11.163-.165.222l-.144.155c-.041.045-.076.096-.104.156-.192.385-.275.68-.247.888.192 0 .385-.03.578-.09.165-.058.357-.11.577-.154.22-.045.454-.14.701-.289.11-.03.234-.104.372-.222.137-.059.281-.147.433-.266.15-.119.309-.252.474-.4l.495-.4c.22-.177.475-.325.763-.443.29-.118.585-.186.887-.2.302-.015.605.082.908.288.55.415.825.94.825 1.577zM93.346 35.174c-1.247 1.234-3.222 2.847-5.945 4.273-2.712 1.426-6.194 2.644-10.196 2.964-3.992.337-8.466-.289-12.804-2.138-2.166-.928-4.024-2.019-5.604-3.154-.388-.296-.767-.583-1.134-.86-.355-.299-.7-.587-1.036-.867-.652-.577-1.18-1.065-1.66-1.395-.24-.163-.467-.295-.678-.384-.192-.084-.394-.138-.586-.163-.386-.05-.705.027-.905.142-.103.057-.193.143-.224.172-.046.051-.098.137-.126.241-.063.21-.055.445-.024.575.013.072.031.106.043.15.01.011.013.041.029.051.002.017.019-.001.01.049-.01.025-.013.015.015.05.237-.036.354-.119.435-.202.084-.077.157-.167.206-.267.195-.418.077-.645.26-.725.096-.05.228-.058.422.04.17.11.4.364.451.853.049.472-.085 1.203-.685 1.816-.295.295-.803.616-1.468.51-.08-.014-.161-.031-.242-.053-.072-.024-.14-.052-.21-.082-.144-.054-.276-.148-.413-.24-.258-.205-.498-.474-.668-.788-.345-.628-.49-1.377-.4-2.186.045-.405.163-.833.385-1.252.237-.438.527-.76.868-1.034.69-.547 1.54-.783 2.376-.757.422.014.85.089 1.282.236.416.142.805.34 1.18.563.742.452 1.393 1.017 2.01 1.52l.963.75 1.046.752c1.454.995 3.15 1.964 5.117 2.807 3.94 1.68 7.983 2.337 11.627 2.192 3.655-.129 6.918-1.013 9.55-2.076 2.643-1.06 4.673-2.281 6.073-3.148 1.394-.883 2.185-1.393 2.324-1.204.123.164-.421 1.016-1.664 2.269z" transform="translate(-77 -20) translate(77 20)"/>
                    <path fill="#0D294A" d="M77.174 32.678c1.787.097 3.46-.38 5.021-1.428 1.56-1.05 2.99-2.382 4.29-3.996-.715-.032-1.398 0-2.048.097-.65.098-1.252.226-1.803.388-.618.161-1.203.355-1.756.581-.78.322-1.478.67-2.096 1.041-.617.371-1.153.727-1.608 1.065-.456.34-.797.646-1.024.92-.227.274-.342.46-.342.557.066.29.31.5.731.63.196.097.407.145.635.145m24.204-30.276c.436.234.733.519.89.852.155.335.233.702.233 1.102 0 .401-.063.811-.187 1.228-.125.419-.266.794-.421 1.128l-.375.702c-.093.2-.203.393-.327.576-.125.184-.234.36-.328.526-.312.568-.686 1.286-1.123 2.155-.374.735-.827 1.637-1.357 2.706-.53 1.07-1.107 2.304-1.731 3.708-.406.936-.813 1.854-1.217 2.757-.344.768-.719 1.587-1.123 2.455-.406.868-.796 1.62-1.17 2.255.81.233 1.622.526 2.433.877.811.35 1.56.81 2.246 1.378.686.568 1.1 1.16 1.24 1.779.141.618.024 1.16-.35 1.628-.344.468-.772.702-1.287.702-.514 0-1.022-.084-1.521-.25-.562-.2-1.154-.519-1.778-.953-.28-.167-.594-.318-.936-.451-.313-.133-.679-.275-1.1-.426-.421-.15-.897-.309-1.427-.476-.843 1.135-1.755 2.213-2.738 3.233-.983 1.019-2.043 1.879-3.182 2.58-1.14.702-2.356 1.21-3.65 1.529-1.294.316-2.675.342-4.141.075-.812-.234-1.498-.569-2.06-1.003-.467-.368-.826-.876-1.076-1.528-.25-.651-.171-1.478.234-2.48.312-.836.936-1.654 1.872-2.456.935-.802 2.067-1.52 3.392-2.155 1.327-.635 2.777-1.152 4.353-1.553 1.575-.4 3.19-.62 4.843-.652.343-.735.67-1.445.983-2.13.311-.684.608-1.36.888-2.03-.437.736-.911 1.27-1.427 1.604-.514.335-.99.569-1.427.702-.531.134-1.06.184-1.59.15-.843-.066-1.514-.275-2.013-.626-.5-.35-.89-.726-1.17-1.127-.28-.401-.476-.785-.585-1.154l-.21-.7c-.094-.635-.094-1.387 0-2.256.093-.868.335-1.861.725-2.981.39-1.12.96-2.38 1.708-3.784.749-1.403 1.716-2.956 2.901-4.66.125-.2.328-.467.609-.802.28-.333.6-.651.959-.952.358-.301.74-.526 1.147-.677.405-.15.825-.108 1.263.126.437.234.733.526.89.876.155.352.233.727.233 1.128 0 .4-.063.802-.187 1.203-.125.401-.266.768-.421 1.103l-.375.701c-.093.2-.203.393-.327.576-.125.184-.234.36-.328.526-.28.469-.624 1.02-1.029 1.654-.406.635-.812 1.32-1.217 2.055-.406.735-.795 1.478-1.17 2.23-.374.752-.671 1.478-.89 2.18-.155.467-.249.886-.28 1.252-.031.335.015.635.14.902.125.268.405.401.843.401.405-.033.881-.3 1.427-.802.545-.501 1.1-1.119 1.662-1.853.561-.735 1.123-1.546 1.684-2.431.562-.885 1.077-1.729 1.545-2.53.467-.802.865-1.504 1.193-2.105.328-.602.538-1.003.631-1.203.312-.668.64-1.32.983-1.954.343-.635.748-1.286 1.218-1.955.123-.2.318-.467.584-.802.265-.333.577-.642.936-.927.358-.283.732-.492 1.123-.626.39-.133.803-.083 1.24.15" transform="translate(-77 -20) translate(77 20)"/>
                    <path fill="#FFF" d="M132.397 25.063c0 1.204-.956 2.18-2.136 2.18-1.18 0-2.135-.976-2.135-2.18 0-1.204.956-2.18 2.135-2.18 1.18 0 2.136.976 2.136 2.18" transform="translate(-77 -20) translate(77 20)"/>
                </g>
                <path fill="#0D294A" d="M115.314 48.514c0 .71-.066 1.36-.197 1.954-.131.593-.322 1.107-.571 1.542-.25.434-.556.773-.918 1.018s-.78.367-1.255.367c-.637 0-1.13-.18-1.48-.541-.35-.361-.6-.823-.75-1.386h-.037v1.633h-1.199V39.23h1.237v6.33h.018c.15-.55.416-.996.796-1.339.381-.342.853-.514 1.415-.514.474 0 .896.12 1.264.358.368.239.678.569.927.991.25.422.437.927.562 1.514.125.587.188 1.235.188 1.945zm-1.068-.013c0-.53-.04-1.029-.122-1.496-.082-.468-.21-.875-.387-1.22-.176-.344-.396-.615-.66-.812-.265-.197-.58-.296-.946-.296-.353 0-.665.099-.936.296-.27.197-.498.468-.681.813-.183.344-.319.75-.407 1.219-.088.467-.132.966-.132 1.496 0 .541.044 1.043.132 1.505.088.462.224.862.407 1.2.183.339.407.607.671.804.264.197.58.295.946.295s.681-.098.945-.295c.265-.197.485-.465.661-.804.177-.338.305-.738.387-1.2.081-.462.122-.964.122-1.505zm5.61 6.654c-.1.41-.215.777-.347 1.097-.131.321-.29.59-.479.809-.188.218-.404.388-.648.51s-.535.183-.873.183c-.176 0-.351-.016-.527-.048-.175-.033-.319-.068-.432-.106l.17-1.136c.087.026.194.051.319.077.125.026.25.039.376.039.363 0 .635-.129.817-.385.181-.257.329-.61.441-1.059l.414-1.655-2.706-9.893h1.315l2.01 8.064h.038l1.785-8.064h1.259l-2.931 11.567z" transform="translate(-77 -20) translate(77 20)"/>
                <g>
                    <path fill="#0D294A" d="M38.694 4.149L42.995 4.149 42.995.372zM40.502 15.642L42.908 15.642 42.908 5.025 40.502 5.025z" transform="translate(-77 -20) translate(77 20) translate(126.508 37.53)"/>
                    <g>
                        <path fill="#0D294A" d="M38.519 15.698V5.08h-2.407v4.595c0 1.428-.694 3.949-2.428 3.949-.237 0-.518-.023-.693-.2-.412-.403-.368-1.762-.368-2.276V5.08h-2.405v7.36c0 1.83.824 3.504 2.795 3.504 1.45 0 2.514-.893 3.056-2.232h.043v1.986h2.407zM26.224 10.388c0 1.23-.152 3.637-1.82 3.637-1.734 0-1.778-2.342-1.778-3.637 0-1.225.11-3.634 1.779-3.634 1.537 0 1.819 2.477 1.819 3.634zm2.406 7.973V5.08h-2.406v1.473h-.044c-.367-.936-1.625-1.717-2.579-1.717-3.01 0-3.531 3.1-3.531 5.552 0 2.343.672 5.556 3.531 5.556 1.105 0 2.039-.536 2.579-1.518h.044l.004 6.045 2.402-2.11zM16.897 8.248h-3.77c.109-1.07.91-1.83 1.95-1.83 1.104 0 1.82.693 1.82 1.83zm2.277 1.495V9.14c0-2.586-1.303-4.303-3.923-4.303-3.078 0-4.422 1.985-4.422 4.995 0 3.501 1.538 6.112 5.202 6.112.975 0 1.95-.112 2.881-.426v-1.715c-.606.222-1.32.402-1.971.402-2.342 0-3.88-2.21-3.88-4.462h6.113z" transform="translate(-77 -20) translate(77 20) translate(126.508 37.53)"/>
                        <path d="M0 0.059L10.053 0.059 10.053 15.954 0 15.954z" transform="translate(-77 -20) translate(77 20) translate(126.508 37.53)"/>
                        <path fill="#0D294A" d="M10.052 11.483c-.079-4.64-7.214-4.912-7.26-7.633-.024-1.361 1.029-1.915 2.22-1.936 1.388-.025 2.501.423 3.766.914L8.775.43C7.557.205 6.304.04 5.068.061 2.598.105-.05 1.158 0 4.122c.074 4.37 7.204 4.446 7.262 7.79.028 1.56-1.242 2.163-2.586 2.188-1.6.031-2.919-.597-4.257-1.423v2.684c1.37.333 2.773.617 4.204.59 2.73-.05 5.483-1.235 5.428-4.468M51.348 12.645c-.104-3.032-4.654-3.584-4.701-4.986-.023-.715 1.027-1.02 1.569-1.039.822-.03 1.576.265 2.303.618V5.167c-.785-.195-1.606-.357-2.407-.33-1.928.071-3.672 1.048-3.597 3.253.094 2.81 4.57 3.696 4.613 4.946.029.849-1.138 1-1.744 1.023-.91.032-1.767-.186-2.601-.535v2.115c.898.257 1.843.366 2.776.334 2.013-.074 3.868-.966 3.789-3.328M62.982 6.968s.657-1.55 2.54-1.55c0 0 2.88-.23 2.88 3.618v6.536h-1.26V9.066s.185-2.568-1.85-2.621c0 0-2.186-.027-2.173 2.538v6.589H61.86V5.542h1.121v1.426zM77.307 6.968s.657-1.55 2.54-1.55c0 0 2.88-.23 2.88 3.618v6.536h-1.26V9.066s.185-2.568-1.85-2.621c0 0-2.186-.027-2.174 2.538v6.589h-1.257V5.542h1.121v1.426zM70.178 15.572L71.474 15.572 71.474.716 70.178.716zM90.217 8.608H85.83c.098-1.38.832-2.341 2.254-2.341 1.424 0 2.133.941 2.133 2.341zm1.24.818c0-2.156-.895-3.974-3.21-3.974-2.907 0-3.74 2.364-3.74 4.956 0 3.263 1.342 5.46 4.736 5.46.69 0 1.363-.062 2.03-.231v-.88c-.569.21-1.159.253-1.746.253-.507 0-1.016-.126-1.484-.336-1.87-.92-2.296-3.322-2.296-5.248h5.71zM73.257 15.572L74.406 15.572 74.406 5.323 73.257 5.323zM73.254 2.387L74.406 2.387 74.406.716 73.254.716zM56.557 14.852c1.92 0 2.28-2.396 2.28-4.193 0-1.512-.164-4.26-2.23-4.26-1.946 0-2.23 2.55-2.23 4.328 0 1.746.409 4.125 2.18 4.125zm-.027.979c-1.915 0-3.397-2.012-3.397-5.123 0-3.401 1.668-5.289 3.505-5.289 2.053 0 3.443 2.074 3.443 5.123 0 3.692-1.9 5.289-3.536 5.289h-.015z" transform="translate(-77 -20) translate(77 20) translate(126.508 37.53)"/>
                    </g>
                </g>
            </g>
        </g>
    </g>
</svg>
