<svg height="51" viewBox="0 0 193 51" width="193" xmlns="http://www.w3.org/2000/svg"><g fill="none" fill-rule="evenodd"><path d="m91.2181734 21.7933531c.3269943.2892045.7425496.322184 1.2471524.098431.503143-.2222308 1.0447273-.6103737 1.6242664-1.1618917.5790524-.5515181 1.1527522-1.2273433 1.719153-2.0289979.5668875-.8006398 1.0763563-1.6210673 1.5298663-2.4617899.2768746-.5251345.4973038-1.0375846.6617741-1.5368428.1630106-.4982436.2578973-1.0766526.2832005-1.7337049.0501196-.3668331.0243299-.6951056-.0759094-.9843101-.0754228-.2628209-.2141034-.5180312-.4155553-.7686751-.2014518-.2491218-.5036296-.4393879-.9070199-.5713057-.1761487-.0517524-.352784-.0847319-.5284462-.0979236-.1766353-.0126845-.3654356-.0065959-.5664008.0192803-.4038769.0786433-.8315971.2633283-1.2851071.5520254.3021778.0527671.6233329.1907735.9634654.4130043.3401324.223753.5479101.5981967.6238195 1.1228238.0243299.3942314 0 .715908-.0759094.9655371-.0754228.2501365-.1766353.4469986-.3026644.5910934-.126029.1446023-.2583839.2430333-.3960913.295293-.1386806.0527672-.2583839.0786434-.3591098.0786434-.3026644.0532745-.5420709.1055342-.7177331.157794-.4286934.1841776-.9011807.5850049-1.4169753 1.2014671-.5167678.617477-.9576262 1.2998981-1.3225752 2.0487856-.3654356.74838-.6043555 1.4769724-.717733 2.1862845s.0311423 1.2476384.4345326 1.6149788m6.6952747-12.84194763c.8061514.32385063 1.4777869.79684985 2.0158505 1.41743323.4634894.5402725.8179514 1.275064 1.0624394 2.2064605.244017.931918.195402 2.1402303-.146787 3.6244153-.146316.5402725-.34219 1.1071415-.586206 1.7000854-.195874.5136761-.4582984 1.0732441-.7877444 1.68079-.3299179.6075458-.7391294 1.2218712-1.2276345 1.8424545-.6357646.7832909-1.3258076 1.4513306-2.0706009 2.0041191-.7457372.5538315-1.5089379.959036-2.2905461 1.2150918-.7825521.2560558-1.5636883.3301086-2.3452964.2226799-.7825522-.1074287-1.5028022-.4312794-2.1626381-.9715519-.5862061-.4589188-.9958896-1.1478184-1.2276345-2.0651345-.2322169-.9178375-.2931031-1.9034698-.1831304-2.955854.1099726-1.0534272.3969399-2.1058114.8609017-3.158717.4644338-1.0529057 1.1119981-1.9571843 1.9426927-2.7128357.0972291-.0542359.1831304-.1147297.2567602-.1825245.0731578-.0672734.1463155-.1277672.2194733-.182003 0-.215379.0306791-.4182419.0920372-.6070244.0604142-.189304.1279081-.365049.2015379-.5267136.097229-.188261.195402-.3645275.293103-.5267136.6102774-.8907196 1.2696413-1.49096447 1.9790356-1.80177763.7079784-.31029167 1.3673423-.49177318 1.9785637-.54653053.7084504-.02659643 1.4169007.08083228 2.1258231.32385063" fill="#0d294a"/><path d="m115.434344 8.78763696c.317479.17972038.538181.40461908.662983.67419965.124364.27007704.181291.55901979.169906.86732459-.011823.3088013-.06262.6171062-.152828.9259075-.090645.3083048-.193114.5907935-.306093.8479624l-.272375.5396576c-.067874.1539042-.141442.3018508-.220264.4428469-.080136.1414926-.153266.2765311-.221141.4051156-.340249.5396576-.754066 1.2332194-1.241013 2.0816783-.48826.8479624-.929665 1.708833-1.326404 2.5826116-.396739.8737787-.679623 1.6959249-.849967 2.4669353-.169906.7710103-.119109 1.3623003.153266 1.7733735.021895.0516323.056051.1156763.101593.1926284.045104.1032648.090646.2313528.136187.385257.022333.2576654-.056489.4890181-.23778.6940582-.091084.1032648-.193115.1678052-.306531.1926285-.158521.1022718-.35689.121634-.594671.0580864-.238218-.0635475-.447973-.1474501-.629264-.2507149-.363021-.2050401-.657729-.4751171-.883686-.8092381-.136187-.1544007-.249604-.3336246-.340249-.5396576-.13575-.2824887-.249604-.6037016-.339812-.9641353-.091084-.3594408-.13575-.783422-.13575-1.2719437-.385791.6429223-.78253 1.2332194-1.190216 1.7733735-.408125.5396576-.828072.989455-1.258092 1.3488957-.159396.129081-.352073.2447573-.578468.3470292-.181729.1027682-.396739.1866708-.645467.2507148-.249604.0635476-.521978.0829097-.816248.05759-.612187-.0511359-1.105264-.2114941-1.478794-.4815712-.374406-.2695805-.663421-.5590197-.867483-.8673246-.204062-.3083048-.345943-.6037016-.425203-.8871832-.07926-.2819922-.118671-.462209-.118671-.5391611-.090208-.4880252-.102031-1.0664071-.033718-1.7351457.067874-.6672491.248728-1.4318054.543873-2.2931724.29427-.8608706.708087-1.8309634 1.241014-2.9102786.532488-1.0798117 1.229189-2.2743068 2.09098-3.5854712.090208-.1539042.23778-.3589443.441843-.61660974.204062-.25667248.43615-.50093332.697139-.73228608.260551-.23135275.538181-.40461908.832889-.52029546.29427-.11567638.600363-.08290968.91828.09631424.317478.17972038.537743.40461908.662983.67419965.124364.27007704.181291.55901979.169905.86732459-.011823.3088013-.062619.6171062-.152827.9259075-.090646.3083048-.193115.5907935-.306531.8479624l-.271937.5396576c-.067875.1539042-.141443.3018508-.220703.4428469-.079698.1414926-.152827.2765311-.220702.4051156-.250042.4115696-.544312.8995948-.884124 1.4645721-.340249.5659703-.669113 1.1696719-.986154 1.8116013-.204062.3857534-.396739.7585987-.57803 1.1180395-.158958.3346175-.311786.6811502-.458921 1.0410874-.148011.3599372-.255297.719378-.323171 1.0793152-.113417.462209-.152828.8097346-.11911 1.0405909.034157.2313528.107286.3986615.221141.5009333.113416.1032648.271937.1544007.475999.1544007.317478-.0253197.73655-.3529867 1.258091-.983001.521103-.6290213 1.059284-1.3687544 1.614981-2.2167168.55526-.8479625 1.076362-1.6959249 1.564185-2.5438874.486947-.8484589.866607-1.515708 1.138982-2.0047262.271937-.5138414.57803-1.053499.917842-1.6184763.339812-.5654738.702832-1.1572602 1.088185-1.7738699.090208-.1539042.237781-.3589443.441843-.61660974.204062-.25667248.43615-.50093332.69714-.73228608.260551-.23135275.538181-.40461908.832888-.52029546.29427-.11567638.600364-.08290968.91828.09631424" fill="#0d294a"/><path d="m19.7288852 4.99169146c.122053-.27682648.1522128-.52977179.091422-.75688647-.0612621-.22711468-.1159268-.40305545-.1644653-.52977179-.1955675-.27731385-.427421-.49760534-.6950894-.66184922-.2686108-.1637565-.6102649-.20859459-1.0249624-.13305216-.4151686.05117391-.749754.24076106-1.0056412.56827407-.2563584.32800038-.4090425.55511506-.4575809.68085666-.0730433.17691551-.1465579.34067202-.2196011.49224426-.1225243.32800038-.1833152.64332913-.1833152.94598625.1950963.02534327.4146975.05068653.6592747.07554243.194625.02534327.4081.04435072.6399535.05702236.2313823.01267163.4575809.01900745.6771821.01900745.2431634 0 .5541865-.05068654.9325979-.15157224.3784114-.10088571.6277011-.30265712.7502253-.6058016m3.7914553-2.41135133c.0746526.29072273.1115003.61357798.1115003.97009586 0 .35651789-.0622105.7594494-.1856743 1.2082845-.148348.50136921-.3847478.93694327-.7058495 1.30672219-.3225373.37028896-.6690017.67274261-1.0403504.9104212-.3718271.23767859-.7374332.42996363-1.0963397.57430492-.3593851.14536136-.6632593.25757014-.9106655.33662632-.8915238.18565452-1.771084.30398378-2.6377236.35702792.3713486 1.13483875.7924655 2.40891836 1.2628724 3.82121886.4708853 1.4128105.8049076 2.8582635 1.0035026 4.3368692.0497684.4493451.0617319 1.1348387.0373263 2.059031-.0253628.9241923-.2359213 1.9667138-.6316755 3.1285847-.3225373.7125257-.706328 1.3995494-1.1518507 2.059541-.3967113.5544134-.8982233 1.1215777-1.5050146 1.7030232-.6072699.5799154-1.3193404 1.0552725-2.1366902 1.4250515-.4215955.2116665-.8297918.3825299-1.2260246.5151402-.3962328.1315903-.8173498.2376786-1.263351.3167348-.4460012.0795662-.9417707.1315903-1.48587297.1586224-.54553791.0260121-1.17673484.0260121-1.89502642 0-1.04035036-.0535542-1.95101583-.204526-2.73103933-.4559756-.78050204-.2509397-1.45572484-.5676744-2.02518985-.9502044-.56994355-.3830399-1.04657141-.8053529-1.43036211-1.266939-.38474779-.4626062-.70058552-.9313329-.94799175-1.40618-.5943492-1.1088267-.90444443-2.3497538-.92885007-3.7227811 0-.818104.05598942-1.5637823.16748971-2.237545.11150029-.6727427.25362727-1.2868307.42685948-1.841244.0990582-.2636907.26606937-.6401001.50199059-1.1287183.23496413-.4881082.56324396-.9833569.98483948-1.4852362.42111699-.5008591.94703467-.9700958 1.57871014-1.4056699.63215402-.4355741 1.38059374-.7324173 2.24819043-.8910397.66852321-.1050682 1.26909345-.1321003 1.80171073-.0790562.53309581.0530442.98483948.1453614 1.35666664.2769517.44600116.1321003.81734977.3034737 1.1145244.5146302.4957695.2912328.8920023.6605017 1.1891769 1.1088268.2722904.3702889.4766279.8390156.6130123 1.4061799.135906.5676744.1052793 1.2342966-.0928371 1.9998664-.1488266.4753572-.3656061.8517666-.6503386 1.1287183-.2847325.2774617-.5943492.4891283-.9288501.6334695-.33402233.1453614-.66325924.2376786-.98483948.2774617-.32205879.0392731-.5943492.0464137-.81734978.0198916-.19859494-.0265221-.34072192-.0856867-.42685949-.1780039-.08757319-.0923172-.13638448-.1846345-.14882657-.2774617-.01292063-.0923172-.01292063-.191265 0-.2968432.01244209-.1055783.03062669-.1846345.05551088-.2376786.22300058-.421803.39623279-.8777787.52017518-1.3663969.12394238-.4881082.15456907-.9308228.09331569-1.3271238-.06221046-.3957909-.22300058-.7252767-.48332744-.9899874-.26032686-.2636906-.6752228-.3957909-1.24516635-.3957909-.37134861.0530441-.71877012.2244175-1.04035036.5146302-.27276896.2642007-.55702292.6798832-.85419752 1.2480676-.29765313.5676744-.53309581 1.4056699-.70584948 2.5139866-.34742151 2.2717177-.13638448 4.0140139.63167547 5.2279089.76758141 1.2144049 2.00604817 1.9269307 3.71540028 2.1385972 1.26335094.1321004 2.31614337.0260121 3.15837737-.3167347.8417554-.3427469 1.5236778-.7528189 2.043853-1.2281761.6187548-.5539033 1.1020823-1.2133849 1.4490252-1.9794648.1727537-.422313.284254-.8517666.3340224-1.2873407.0497683-.435574.0746525-.844626.0746525-1.227666 0-.3825299-.0186631-.7191562-.0559894-1.010389-.0373263-.2897027-.0684315-.5141202-.0928372-.6727426-.1732322-.7125257-.3780482-1.4388225-.6130123-2.1778703-.2354427-.7395579-.4646643-1.4984972-.6876649-2.2773281-.2230006-.778831-.4268595-1.5505213-.6130123-2.3166012-.1856743-.76556989-.3153592-1.51838876-.3895332-2.25743656-.1488266-.02652208-.2976532-.04590359-.4464797-.05967467-.1488266-.01326104-.2852111-.03264255-.4086749-.05916463-1.5112357-.23767858-2.74348144-.52126076-3.69673715-.85125657-.95373426-.32999581-1.57918868-.57430491-1.87684182-.73292732-.79294414-.3427468-1.50501467-.76556987-2.1362116-1.26744912-.63167547-.50136921-1.02216577-1.12157771-1.17051379-1.86113555-.07417402-.2902127-.11150029-.58042539-.11150029-.87165817 0-.26318058.03732627-.54013224.11150029-.83085498.07417401-.29072273.22300058-.58093543.44552262-.87165817.07465256-.10557825.27276896-.27032114.59482774-.49473869s.73025513-.2443091 1.22602466-.05967466c.02440565 0 .07417402.02652207.14882657.07905618.04928983.05304415.09857966.11271881.14834803.17800392.04976837.06630519.09857966.15250193.14882657.25757014.27229041.55441336.60057024 1.02977054.98436095 1.42556149.38426924.39630099.7618389.72680684 1.13366605.99049746.44552263.29072274.90396589.54115232 1.37485124.75230884.89152383.37028896 2.12999053.75230883 3.71540023 1.14809979.1732323-.81759395.421117-1.50461767.7431758-2.05903103s.6876649-1.00324846 1.0963398-1.34599527c.4086749-.34325684.8293133-.6074575 1.2633509-.79260198.4330806-.18463444.836013-.32999581 1.2073616-.43557407.5201751-.15811236 1.0403503-.25042958 1.561004-.2774617.4455227-.02550199.9283716.00714056 1.4485468.09945778.5206537.09231722 1.0154661.31061429 1.48683.6533611.1727537.13261037.4019753.34325684.6871864.63346954.2842539.29072273.4890699.67325265.6130123 1.14860983" fill="#00aaae"/><path d="m34.1408118 8.78763696c.3174787.17972038.5381811.40461908.6629831.67419965.124364.27007704.1812912.55901979.1699058.86732459-.0118234.3088013-.0626199.6171062-.1528277.9259075-.0906456.3083048-.1931146.5907935-.3060932.8479624l-.2723748.5396576c-.0678748.1539042-.1414423.3018508-.2202645.4428469-.080136.1414926-.1532656.2765311-.2211404.4051156-.3402495.5396576-.7540666 1.2332194-1.2410132 2.0816783-.4882603.8479624-.9296651 1.708833-1.326404 2.5826116-.3967389.8737787-.6796233 1.6959249-.8499671 2.4669353-.1699058.7710103-.1191092 1.3623003.1532656 1.7733735.0218951.0516323.0560514.1156763.1015932.1926284.0451039.1032648.0906456.2313528.1361874.385257.022333.2576654-.0564893.4890181-.2377806.6940582-.0910835.1032648-.1931146.1678052-.3065311.1926285-.1585204.1022718-.3568899.121634-.5946704.0580864-.2382185-.0635475-.4479734-.1474501-.6292647-.2507149-.3630204-.2050401-.6577282-.4751171-.8836855-.8092381-.1361874-.1544007-.2496039-.3336246-.3402495-.5396576-.1357495-.2824887-.249604-.6037016-.3398117-.9641353-.0910835-.3594408-.1357495-.783422-.1357495-1.2719437-.3857913.6429223-.7825302 1.2332194-1.1902166 1.7733735-.4081243.5396576-.828072.989455-1.2580914 1.3488957-.1593962.129081-.3520729.2447573-.578468.3470292-.1817292.1027682-.3967389.1866708-.645467.2507148-.249604.0635476-.5219788.0829097-.8162487.05759-.6121864-.0511359-1.1052637-.2114941-1.4787938-.4815712-.3744059-.2695805-.6634209-.5590197-.8674831-.8673246-.2040621-.3083048-.3459423-.6037016-.4252025-.8871832-.0792602-.2819922-.1186713-.462209-.1186713-.5391611-.0902077-.4880252-.1020311-1.0664071-.0337184-1.7351457.0678747-.6672491.2487281-1.4318054.5438738-2.2931724.2942699-.8608706.7080869-1.8309634 1.2410132-2.9102786.5324884-1.0798117 1.2291899-2.2743068 2.0909803-3.5854712.0902077-.1539042.2377805-.3589443.4418427-.61660974.2040622-.25667248.43615-.50093332.6971394-.73228608.2605515-.23135275.5381811-.40461908.8328889-.52029546.2942699-.11567638.6003631-.08290968.9182797.09631424.3174787.17972038.5377432.40461908.6629831.67419965.124364.27007704.1812912.55901979.1699058.86732459-.0118233.3088013-.0626199.6171062-.1528277.9259075-.0906456.3083048-.1931146.5907935-.3065311.8479624l-.2719369.5396576c-.0678748.1539042-.1414422.3018508-.2207024.4428469-.0796981.1414926-.1528277.2765311-.2207025.4051156-.2500418.4115696-.5443117.8995948-.8841233 1.4645721-.3402496.5659703-.6691137 1.1696719-.9861545 1.8116013-.2040622.3857534-.3967389.7585987-.5780302 1.1180395-.1589582.3346175-.3117859.6811502-.4589209 1.0410874-.1480107.3599372-.2552966.719378-.3231714 1.0793152-.1134165.462209-.1528276.8097346-.1191092 1.0405909.0341563.2313528.1072859.3986615.2211403.5009333.1134165.1032648.2719369.1544007.4759991.1544007.3174787-.0253197.7365505-.3529867 1.2580914-.983001.5211029-.6290213 1.059284-1.3687544 1.6149812-2.2167168.5552592-.8479625 1.0763622-1.6959249 1.5641846-2.5438874.4869466-.8484589.8666073-1.515708 1.1389821-2.0047262.2719369-.5138414.5780302-1.053499.9178418-1.6184763.3398117-.5654738.7028321-1.1572602 1.0881856-1.7738699.0902077-.1539042.2377805-.3589443.4418427-.61660974.2040622-.25667248.43615-.50093332.6971394-.73228608.2605515-.23135275.5381811-.40461908.8328889-.52029546.2942699-.11567638.6003631-.08290968.9182797.09631424" fill="#00aaae"/><path d="m46.6377767 9.23106725c.6233536.27436299 1.0545142.66782557 1.2948712 1.17894115.2394307.51208.3232546 1.0926301.2514717 1.7411683-.0486271.3245102-.12041.6615572-.2158118 1.0106588-.071783.3245102-.1741315.6866308-.3056563 1.0858796-.131988.3992487-.2936153.8365901-.4853452 1.3105775-.1921929.3992488-.3834597.804766-.5751895 1.2170337-.192193.4113034-.4195827.8298396-.6835586 1.2536798-.2158119.4248046-.5335092.917115-.9526288 1.4788599-.4200458.561745-.8933499 1.1046848-1.4203754 1.6283372-.5274887.5246168-1.0966577.9923357-1.7079703 1.4046035-.6117757.4117856-1.2170678.6678256-1.8158762.7671556-.2639759.0506294-.5279518.0752208-.7910014.0752208-.216275 0-.4441279-.0245914-.6835586-.0752208-.2398939-.049665-.4557057-.1494772-.6469725-.2994366-.2639759-.1996244-.4019843-.4431276-.4140253-.7300274-.012041-.2864176.0180615-.5178662.0903075-.692417.0477009-.1248857.1194839-.211679.2153488-.2623083.0954018-.049665.1917298-.0872754.2880579-.112349.0954018 0 .2153487.013019.3593777.0376104.3116767 0 .641415-.1499594.9892148-.449396.3473367-.2994366.677075-.6364836.9882887-1.0106588.3598408-.4243224.7071775-.9108465 1.0429363-1.4605369.4075417-.6736118.9290098-1.6847527 1.5644044-3.0324585.6349315-1.3477057 1.1443586-2.8950359 1.5282814-4.6424726-.3362219.125368-.6418782.2753274-.9169688.449396-.2760169.1745508-.5214682.337047-.73728.4870063-.2639759.1996244-.4918288.386712-.6830955.5612628-.7673825.6991676-1.5046625 1.5478124-2.2113769 2.5459343-.7076406.9986042-1.3610967 2.0213176-1.9599051 3.0700689-.4075418 1.0733428-.7613621 2.1220941-1.0609978 3.1448075-.2996358 1.0236777-.5515707 1.9972083-.7553416 2.9201095-.2033077.9233833-.3593776 1.7787787-.4668205 2.5647395-.108369.7859607-.1741314 1.4537863-.1977503 2.0029945-.0245451.1248858-.036123.2367526-.036123.337047v.2994366.2994365c-.024082.5993554-.1204101 1.0357324-.2875948 1.3105776-.0958649.1740686-.180152.3119734-.2519349.4117856-.2639759.324028-.5455501.5053294-.8447228.5429397-.3000989.0376104-.5816732.0188052-.8456491-.0564155-.3112136-.0998122-.6344683-.2623084-.9702271-.4865242-.3834597-.2753274-.6594766-.6306974-.8271244-1.0670744-.1676479-.4373413-.2639759-.9421885-.2880579-1.5164703-.0231558-.1745508-.0231558-.3621206 0-.5612628 0-.175033.0125041-.3495838.036123-.5246168.024082-.1745508.0597419-.3621205.1079059-.5612628.1204101-.9238655.3176973-1.8906455.5932511-2.9013042.2760169-1.011141.5700953-1.9528474.8813089-2.8270479.3593777-.9976398.7423743-1.9841893 1.1503791-2.9577199.1671848-.4238402.3714187-.9233834.6113126-1.4976651.2394308-.5733174.508964-1.1789412.8090629-1.815907.2996358-.6364835.61687-1.2787533.9530919-1.9282559.3352957-.648056.6830955-1.2599481 1.0429363-1.8342299.0472378-.09933.1194838-.1991422.2158118-.2994366.071783-.09933.1491233-.211679.2334103-.337047.0838239-.1244036.1852462-.2623084.3056563-.4117856.1199469-.12440358.2699964-.27388079.4492221-.44939595.180152-.17406862.3779023-.3365648.5937142-.48652419.2158118-.14995939.4492221-.26761241.7006938-.35585218.2519349-.08679321.4978493-.11813521.7372801-.0935438.5515706.12536798.8813089.44939598.9892148.97353056.1074428.52413456-.0064836 1.06128816-.3413162 1.61001416-.2644389.2994366-.4922918.6239467-.6835585.9735305.1194838-.1248858.2213692-.2367526.3056562-.337047.083824-.09933.1736684-.1996243.2695333-.2999187.2875948-.3491016.5872306-.661075.8993705-.9359202.2630496-.2492894.5751895-.4985788.9345672-.74883256.3598408-.24880722.7307964-.4489138 1.1147192-.59887318.072246-.02459141.1917299-.06798802.3598408-.13067201.1671847-.0622018.3649351-.10608059.5932511-.13163637.2273897-.02459142.4733041-.02459142.73728 0 .2630496.02555578.5390665.10029438.8266613.22518017" fill="#00aaae"/><path d="m54.5477554 12.691005c-.2964972.3389506-.581058.6909958-.8522503 1.0561358-.2721471.3389506-.5562305.7171852-.8527277 1.1336965-.2964971.4175186-.581058.8864087-.8527276 1.408181 1.0375012-.1566324 1.8964358-.4306133 2.5763262-.8214389.6794129-.3913293 1.2289591-.814388 1.6495936-1.2711906.4201569-.4557954.7233384-.885905.908112-1.290329.1857285-.4039203.3155952-.7096306.3896001-.9186417.0983549-.3132649.1480098-.5872457.1480098-.8214389 0-.2346969-.0124137-.4432044-.0367637-.6260262-.4206344.0785681-.8899689.2875792-1.4089582.6260262-.5189894.3394542-1.0752199.8471246-1.6682142 1.5250258m5.0456241-3.38391829c.2213718.1864031.4061651.42635849.5534296.71935119.1225621.2399554.2213718.5597243.2954791.9593066.0736323.4000973.0736323.86662 0 1.3995681-.172917.9860828-.5296772 1.8660908-1.0698055 2.6384794-.5415534.7734184-1.1562641 1.4268591-1.8441319 1.9592923-.688818.533463-1.3961628.9536424-2.1210843 1.2595083-.7253966.3068957-1.3462828.4871197-1.8626588.5396421-.5415534.0540672-.9904727.0468583-1.3467579-.0200821-.3567601-.0659105-.6332374-.1658061-.8294318-.2996867-.0988097.2672464-.1971444.5468511-.2954791.8398438-.0736323.2662166-.1534402.5535451-.2394237.859411-.0869335.3068957-.142039.6467467-.1662664 1.0195529 0 .1869181.0123513.3599331.0370537.5195601.0242274.1338807.0555805.2935076.0921591.4799107.0370536.1869181.1045103.3599331.202845.5195601.3192315.6400526.7866776.9000901 1.4018633.7801124.6142356-.1199777 1.2294213-.3934032 1.8441319-.8197617.7130454-.4799108 1.4626694-1.1328366 2.249822-1.9587774.0489298-.0267762.1106859-.0664254.1847932-.1204926.1472646-.1060747.2950042-.159627.4422687-.159627.1477396 0 .2707767.0334702.3691114.0998956.0978597.0669403.1843182.1400598.2584255.2198733.0736323.1071045.1344383.2265673.1838431.359933.0242274.1338807.0370537.2667316.0370537.3995824 0 .1338807-.0185268.2868136-.0555805.4598287-.0365786.1740448-.1045103.353239-.202845.540157-.1230371.1864031-.2641261.3594182-.4237418.5195601-.1605659.1596269-.3135309.2935076-.4612705.3995823-.2950041.2136942-.6028345.3995824-.922066.5597243-.2712518.1338807-.578132.2801196-.922541.4397465-.3439339.1601419-.6883429.2662166-1.0322769.3197689-.4185162.0803284-.8180307.1333658-1.1990183.1601419-.3814626.0262612-.8180307.0128731-1.3092291-.0396493-.2218469-.0540672-.4242169-.0998956-.6085351-.1405747-.1847932-.0396493-.375287-.0865075-.5719564-.1395449-.6641155-.2131792-1.1990183-.5200749-1.6042333-.9196573-.406165-.4000973-.7073447-.7996796-.9035391-1.199262-.2213718-.4000973-.3634109-.8460229-.4246919-1.3398367-.060806-.4927839-.0793328-.9855678-.0551054-1.4788666.0242274-.4932989.0855084-.9598216.1843181-1.3995681.0983347-.4397466.1966695-.8058588.2954792-1.0993664.1714919-.4799108.3686364-.9459185.5900082-1.3990532.2213719-.4531346.3928638-.7862915.516376-.9999857.3686363-.6663139.7615001-1.2795904 1.1800164-1.8393146.4180412-.5597243.8232562-1.0525082 1.2175451-1.4788667.4916735-.5329481 1.0565042-1.0128589 1.6963924-1.43973228.5410783-.37280621 1.1804914-.69926912 1.9182392-.9793887.7377478-.27960466 1.5363016-.40576146 2.3975616-.38001518.2950041 0 .5776569.02677614.8484337.08032841.2455992.05355228.4978491.11946277.7562746.19927625.2579504.08032841.4978491.21369417.7187459.40061221" fill="#00aaae"/><path d="m70.8955224 10.1047241c0 .5595885-.1222901 1.099066-.3654593 1.6199408-.024458.1045771-.0729037.2086516-.1458074.3122232-.0493864.1045772-.1100611.2086516-.1829648.3122232-.0729037.1045772-.1458074.221221-.2191815.3514397l-.5474834.7808094c-.1707358.2337903-.3471157.5012666-.5296102.7999149-.1824944.2996538-.3715737.5922688-.5662972.8788505-.2920852.4680834-.5841704.9633167-.8762556 1.483186-.2920852.5208748-.5658269 1.0412468-.8216954 1.5616188-.2553982.5208748-.4745797 1.0281747-.6575445 1.5224024-.1824944.4947305-.2981997.9502446-.3466454 1.3660395-.0729037.5465163.0117587.9763888.2553982 1.288612.048916.0266471.0968914.0779301.1462778.1558603.0968914.1307214.1580364.2735095.1824944.4298725.0239877.0779301.012229.1694351-.036687.2730068-.048916.0779301-.1091204.1754684-.1824945.2931177-.0729037.1166438-.1951938.2277571-.3649889.3313287-.1951938.1040744-.4082608.1171466-.6392009.0392164-.2314105-.0779301-.4567065-.1815017-.675888-.3122232-.2680975-.1302187-.5234957-.299151-.7666649-.5078026-.1707358-.1815018-.3287722-.3901533-.4745796-.6244465-.1462778-.2342931-.2685679-.5072998-.3654593-.8200258-.1222901-.428867-.1829648-.8974532-.1829648-1.4439696 0-.5465163.0917176-1.1774988.274212-1.8934502.1824945-.7154487.4689355-1.5224025.8583825-2.4203584.3889766-.897956.9129426-1.8934503 1.5704871-2.986483.1213494-.207646.2426988-.4032255.3649889-.58523.1218197-.1820045.2431692-.3770811.3649889-.5857327-.2191815-.0256416-.4378926-.0392165-.6570741-.0392165s-.450592-.0125693-.6942315-.0392164c-.1702655.833098-.4745797 1.6008353-.9124723 2.3032118-.438363.7028793-.8894253 1.3016843-1.3513056 1.7964148-.2441099.2337903-.5056225.4032254-.7854787.5067971-.2803266.1045771-.5474834.1699379-.8033519.1955794-.2553982.0261443-.4811645.0065361-.675888-.0588247-.1951938-.0643551-.3283019-.1618935-.4012056-.292615-.1462778-.207646-.1707358-.3906561-.0729037-.5465163.0968914-.156363.1942531-.2599346.2920852-.3122232.8517976-.4942277 1.5756609-1.1518573 2.173001-1.9713804.5959291-.8200259 1.0408769-1.6591572 1.3329621-2.5183995-.1951938-.2342931-.3654593-.5198693-.511737-.85873954-.1462778-.33786473-.2069525-.75466513-.1824945-1.24889286.0239877-.62444643.1462778-1.06688835.3654593-1.32732575.2187111-.2604374.4256636-.42936977.6208574-.50780266.0968914-.05178581.3160729-.0839634.6570741-.09753833.3410013-.01256937.6815322.136252 1.0225334.44948077.1947235.18200451.3160729.37758395.3649889.58522999.0489161.20865158.0550306.40976155.0188139.60534098-.0371574.19457389-.1039466.38361726-.200838.56562177-.0978321.18250729-.1951938.33887029-.2920852.46858621-.0493864.07843289-.0978321.14329085-.1462778.19507667-.048916.05228859-.0912472.09753833-.1279342.136252-.0362167.03971921-.0672596.08496896-.0917176.13725755-.1702655.3383675-.2431692.5988049-.2187111.7808094.1702654 0 .3405309-.0256415.5112666-.0784329.1462778-.0517858.3160729-.0975383.5112667-.136252.1942532-.0392164.401676-.1231798.6208575-.2539013.0973617-.0256415.2064821-.0910022.3287722-.19557943.1218198-.05128304.2492837-.12921315.3833324-.23379033.1335784-.1040744.2737417-.22122096.4200195-.35143966.0968914-.07793011.2431692-.19507666.438363-.35143965.1947234-.15586023.4200194-.28607893.6754176-.39015333.2558685-.10357163.5173812-.16289907.7854787-.17597122.2671569-.01256937.5352544.07239959.8033519.25390133.4868087.36501458.7304482.82656194.7304482 1.38615039z" fill="#00aaae"/><path d="m82.6415291 30.9285419c-1.1045342 1.0851039-2.8528268 2.5035928-5.26384 3.7575264-2.4005841 1.2539335-5.4833246 2.3251464-9.0263667 2.6061728-3.5340352.2965203-7.4956626-.2537786-11.3354594-1.8800989-1.9175282-.8152972-3.5629522-1.7748475-4.9618708-2.7733995-.3436855-.2596556-.6788381-.5118314-1.0035617-.7565275-.3147685-.2617926-.6205301-.5155713-.9172847-.7618701-.5773917-.5075572-1.04433-.9365766-1.4705-1.2266857-.2109518-.1426503-.4128967-.2591213-.5991979-.3376591-.1701836-.0731951-.3493741-.1212795-.5186096-.1431846-.3422634-.0443444-.6247966.0235079-.8020909.1250194-.0910174.0502214-.1706576.1255536-.1981525.1511986-.0402941.0448788-.0867509.1202109-.1109274.2121055-.0564119.1837892-.0488271.3910862-.0213322.5054202.0109031.0630439.0274948.0929631.0379239.1324991.009481.0090826.0113772.0357962.0255986.0443445.0018962.0144253.0165917-.0010686.0085329.0427417-.0085329.0219051-.0109031.0133567.0132734.0438102.2104777-.031522.3133464-.1041828.3854018-.1768437.0744257-.0678524.1388964-.1474587.1820348-.2350791.1730279-.3675783.0682631-.5668613.2303878-.6379193.0853288-.0438102.2024189-.0507557.3735506.0347276.1507476.096703.3536406.3210967.3996233.7511847.0431385.4145941-.0758478 1.0578561-.6067827 1.5964011-.2607269.2596556-.7110735.5417505-1.2998423.4482531-.0706333-.0117539-.1422147-.0272478-.2142701-.0459472-.0635226-.0213709-.1232528-.0464816-.1858273-.0726609-.1270451-.0475501-.2436611-.1298278-.3654917-.2115712-.2284916-.179515-.4408656-.4161969-.5916132-.6924149-.3048135-.5519017-.4332807-1.2106576-.3541145-1.9223063.0398201-.3558243.1450589-.7324852.3408412-1.1005977.2104777-.3852093.4669382-.6689071.7684334-.9093289.6119972-.4808437 1.3633649-.6881408 2.1043034-.6651671.3735506.0117539.7518417.0780035 1.1348733.207297.367862.1244851.7124956.2981231 1.0438559.4952691.6575059.3974974 1.2334754.893835 1.7800539 1.3356769.2758965.2137083.5598519.4338278.8523401.6603587.300073.2142425.6086789.4343621.9262917.6608929 1.2875171.8746013 2.7883562 1.7267631 4.5304862 2.468331 3.4885265 1.4767244 7.0671223 2.0553396 10.2930256 1.9276489 3.2363325-.1132654 6.1247129-.8906294 8.4556118-1.8256032 2.3389577-.9323025 4.1370255-2.0061868 5.3761896-2.7685912 1.2344235-.7762954 1.9341198-1.2245486 2.0573726-1.0583904.1085572.1442532-.3730766.893835-1.4728702 1.9949671z" fill="#00aaae"/><path d="m68.3234766 28.7345186c1.581982.085262 3.0641649-.3339819 4.4455938-1.2563185 1.3804739-.9223367 2.6468235-2.0938643 3.7980938-3.5131698-.6331748-.0282637-1.2376992 0-1.8130956.0852619-.5753964.085733-1.1082946.1987876-1.5967847.3410479-.546746.1417892-1.064364.3118421-1.5542866.5111007-.6899981.2831074-1.3083702.5883547-1.8560712.9152707-.5457909.3259739-1.0199558.6387582-1.4234495.9364685-.4030163.2981813-.7052784.5676279-.9063091.809282-.2010306.240712-.3027396.40417-.3027396.489432.0582559.2553148.2740892.4399705.6475.5539672.1728577.0847909.3600406.1276574.5615487.1276574m21.4286207-26.62225588c.3859347.20572538.6490303.45581334.7874534.74928888.1375064.29396304.206718.61668863.206718.96915178s-.0559193.71272631-.1654661 1.07932699c-.1104635.36806318-.235136.69858879-.3731007.99157682l-.3313905.61717614c-.0829622.17598782-.1801334.34563814-.2896802.50700093-.1109218.1618503-.2076346.31590058-.2905968.46215085-.2759296.49968842-.60732 1.13148959-.9941714 1.89491599-.3309321.6464262-.7319925 1.4395902-1.2013477 2.3794919-.4698136.9403892-.9804207 2.0265412-1.5327382 3.2608935-.35935.822414-.7191585 1.630203-1.0771335 2.4238544-.3043476.6756763-.6361964 1.3952276-.9946297 2.158654-.3593501.7634264-.7040329 1.4244776-1.0358817 1.9826662.7182418.2057253 1.4360253.4626383 2.1547255.7712264.7177835.3085881 1.3810227.7117513 1.9883427 1.2119272.60732.4992009.9740038 1.0198519 1.0982179 1.5643904.1242141.543076.020626 1.0203394-.3107645 1.4317901-.3043475.4114508-.6834068.6171762-1.1394698.6171762-.4551462 0-.9047922-.0741002-1.3466461-.2203504-.4973149-.1759879-1.0216727-.4558134-1.5739901-.8375266-.2484282-.1472253-.5252745-.279338-.8287053-.3968257-.2763879-.1170002-.6004447-.2418005-.9735454-.3744007-.3726424-.1321127-.7943287-.271538-1.263684-.4182758-.7457431.9979144-1.5533641 1.9456161-2.4237797 2.8421303-.8699572.8960266-1.8086676 1.652628-2.817048 2.2693166-1.0088387.6166887-2.0855139 1.0642145-3.2314007 1.34404-1.1454284.278363-2.3678604.3007881-3.6663793.0658126-.7187002-.2057253-1.3260202-.4996884-1.8228767-.8814016-.4143527-.3237006-.7315341-.7707389-.9533778-1.34404-.2204686-.572326-.1512571-1.2996774.2071763-2.1805915.2768463-.7351513.8291637-1.4542152 1.657869-2.1591415.8277886-.7054137 1.829752-1.3372149 3.0026817-1.8949159 1.1747631-.5586761 2.4586147-1.0135144 3.8538464-1.3659776 1.394315-.3524631 2.823465-.5445385 4.28745-.573301.3034308-.6459387.5935693-1.2704273.8704156-1.872491.2754711-.6015761.5381084-1.1963272.7865366-1.7847407-.3868513.6469137-.8071626 1.1168645-1.2636839 1.4098526-.4551462.2944505-.8768326.5001759-1.2632256.6171761-.4702719.1179752-.9391688.1613628-1.408524.1326002-.7457431-.0589876-1.3397708-.2422879-1.7811664-.550876-.4427707-.308588-.7874534-.6391137-1.0358816-.9915768-.2488867-.3524632-.4216864-.6903013-.5183992-1.0140019-.0967129-.3222381-.1590491-.5284509-.1856337-.6166886-.0829622-.5572135-.0829622-1.2187522 0-1.9826662.0825039-.7634264.2960972-1.637028.6416966-2.6217798.3451411-.9842643.8493313-2.09284133 1.5121122-3.3267061s1.5189875-2.59984229 2.5686198-4.09793254c.1104635-.17647533.2901385-.41096326.5385668-.7054138.2484282-.29298804.5312331-.57232606.8493313-.83655154.3171814-.26520049.6559055-.46263835 1.0152556-.5952386.3584334-.13211274.7310758-.09506267 1.1183855.11017521.3868514.20572537.6490303.46263835.7874534.77073891.1379648.30907557.206718.63911368.206718.99157683s-.0554609.7049263-.1654661 1.05787695c-.1109218.35295065-.2351359.67567624-.3731007.96963928l-.3313904.61668864c-.0829622.17647532-.1796751.34515063-.2896802.50651343-.1109219.1618503-.2071763.31590058-.2901385.46263835-.2488867.41193826-.5527758.89651415-.9112092 1.45421518-.3593501.55818852-.7191586 1.1607396-1.0775919 1.8066783-.3593501.6464262-.7040329 1.2996774-1.0358817 1.9612161-.3309321.6610512-.5940277 1.2991899-.786995 1.9168536-.1379648.4109632-.220927.7785389-.2484283 1.100777-.0279596.2944505.0132923.558676.1242142.7931639.1100051.235463.3584333.3529507.7457431.3529507.3584334-.0292501.7801197-.264713 1.2636839-.7054138.4826475-.4407008.9740038-.9837768 1.4708603-1.6297155.4973148-.6464262.9941713-1.3591525 1.4914862-2.1376914.4973149-.7780515.9529194-1.5200278 1.3672721-2.2249541.4138943-.70492633.7663691-1.32210247 1.0560492-1.85055344.2905969-.52893847.4766889-.88140162.5591928-1.05787695.2759295-.58695108.5660681-1.15976463.8699572-1.71795316.3038892-.55818853.6627809-1.13051458 1.0780503-1.71892816.1095468-.17598783.2823465-.41096326.5170241-.7049263.2346776-.29347554.5115239-.56501354.8291637-.8151015.3167231-.24960046.6481136-.4333883.9941714-.55087601.3451411-.11700022.7109081-.07312514 1.0977595.13211274" fill="#0d294a"/><path d="m117.21393 22.0380836c0 1.0583239-.846589 1.9163551-1.8908 1.9163551-1.04421 0-1.890294-.8580312-1.890294-1.9163551 0-1.0583238.846084-1.9163551 1.890294-1.9163551 1.044211 0 1.8908.8580313 1.8908 1.9163551" fill="#00aaae"/><path d="m102.089552 42.6587596c0 .6238942-.058042 1.196685-.174129 1.7183896-.116087.5217047-.284687.9734833-.505804 1.3553496-.221118.3818663-.491983.6803629-.812604.8954989-.320621.2151359-.6909875.3227022-1.1111112.3227022-.5638502 0-1.0005512-.1586603-1.3101161-.4759858-.3095648-.3173255-.5306792-.7233885-.6633499-1.2182011h-.0331675v1.4360251h-1.0613599v-12.1981463h1.0945274v5.5666144h.0165838c.1326706-.4840559.3676047-.876673.7048092-1.1778634.3372046-.3011903.7545581-.4517831 1.252073-.4517831.4201237 0 .7932542.1048771 1.1194032.3146347.326148.2097575.599778.5001867.820895.8712961.221118.3711095.386954.8148207.497513 1.331147.110559.5163262.165837 1.0864279.165837 1.7103221zm-.945273-.0117385c0-.4655575-.03601-.9040412-.108032-1.3154641-.072021-.4114229-.186053-.7687059-.342099-1.0718596s-.3511-.5413424-.585169-.7145731-.513147-.2598448-.8372424-.2598448c-.3120919 0-.5881691.0866141-.8282398.2598448s-.4411269.4114194-.6031746.7145731-.2820813.6604367-.3601042 1.0718596c-.078023.4114229-.1170339.8499066-.1170339 1.3154641 0 .4763845.0390109.9175748.1170339 1.3235843.0780229.4060094.1980565.757879.3601042 1.0556193s.3601031.5332222.594172.7064529.5131469.2598448.8372424.2598448c.3240954 0 .6031734-.0866141.8372424-.2598448s.429123-.4087126.585169-.7064529.270078-.6496099.342099-1.0556193c.072022-.4060095.108032-.8471998.108032-1.3235843zm4.967537 5.8516043c-.088706.3610542-.191272.6826133-.307699.9646869s-.257801.5190118-.424125.7108219c-.166325.19181-.357596.3413068-.573818.4484948s-.474021.1607811-.773405.1607811c-.155237 0-.310471-.0141034-.465707-.0423108s-.28275-.059235-.382545-.0930838l.149692-.9985356c.077618.0225659.171867.0451315.28275.0676973.110883.0225659.221765.0338487.332648.0338487.321561 0 .562728-.1128277.723508-.3384866.160781-.2256589.291067-.5359352.390861-.9308383l.365913-1.4554925-2.395063-8.6991065h1.164267l1.779664 7.091295h.033265l1.580076-7.091295h1.11437z" fill="#0d294a"/><path d="m146.256917 36.6484364h3.80748v-3.3211637z" fill="#0d294a"/><path d="m147.857708 46.7544545h2.130011v-9.3362727h-2.130011z" fill="#0d294a"/><path d="m146.101272 46.8036273v-9.3370909h-2.130972v4.0406727c0 1.2555818-.614384 3.4722-2.148741 3.4722-.209864 0-.458787-.0199636-.613743-.1757455-.36466-.3541091-.325761-1.5494727-.325761-2.0014363v-5.3356909h-2.129852v6.4723091c0 1.608709.72964 3.081109 2.474822 3.081109 1.284314 0 2.225579-.7854545 2.705496-1.9624909h.037779v1.7461637z" fill="#0d294a"/><path d="m135.216361 42.1340836c0 1.0811455-.133986 3.1984364-1.610235 3.1984364-1.535959 0-1.575178-2.0596909-1.575178-3.1984364 0-1.0773818.097008-3.1953272 1.575178-3.1953272 1.361312 0 1.610235 2.1784909 1.610235 3.1953272zm2.130812 7.0105091v-11.6779091h-2.130812v1.2958364h-.039059c-.324801-.8230909-1.438311-1.5102-2.282568-1.5102-2.664836 0-3.126504 2.7253636-3.126504 4.8817636 0 2.0603455.594694 4.8853637 3.126504 4.8853637.978243 0 1.804732-.4712728 2.282568-1.3342909h.039059l.003682 5.3149091z" fill="#0d294a"/><path d="m126.959083 40.2526582h-3.337168c.095888-.9415637.804558-1.6087091 1.725973-1.6087091.977602 0 1.611195.6084 1.611195 1.6087091zm2.015876 1.3141636v-.5296909c0-2.2742182-1.15321-3.7842545-3.473075-3.7842545-2.724546 0-3.914894 1.746-3.914894 4.3928181 0 3.078491 1.362113 5.3736546 4.605475 5.3736546.863466 0 1.726132-.0983455 2.550699-.3739091v-1.5087273c-.536745.1957091-1.169377.3541091-1.745182.3541091-2.072863 0-3.435136-1.9428545-3.435136-3.924z" fill="#0d294a"/><path d="m112 33.0522h8.899918v13.975916h-8.899918z"/><g fill="#0d294a"><path d="m120.899211 43.0970345c-.069475-4.0796181-6.386834-4.319509-6.426694-6.7118727-.021771-1.1968363.910049-1.6833273 1.965451-1.7018182 1.228446-.0222545 2.213573.3717819 3.333646.8029637l-.002882-2.1081273c-1.078292-.1976727-2.1878-.3436364-3.28226-.3243273-2.18684.0387818-4.529437.9643091-4.485896 3.5707091.065633 3.8431637 6.37835 3.9096 6.429575 6.8501455.024653 1.3712727-1.100063 1.9014545-2.28945 1.9235454-1.41734.0274909-2.583996-.5251091-3.768581-1.251v2.3601273c1.213079.2920909 2.454652.5426182 3.721197.5192182 2.416714-.0438546 4.854238-1.0870364 4.805894-3.9295637"/><path d="m157.459073 44.1184855c-.091885-2.6656364-4.119795-3.1511455-4.161735-4.383491-.01985-.6293454.909249-.8968909 1.389006-.913909.727719-.0266728 1.395409.2331818 2.039407.5434363v-1.8212727c-.695224-.171-1.421982-.3138546-2.131453-.2902909-1.706442.063-3.250885.9220909-3.184612 2.8606909.083721 2.4705818 4.046958 3.2503091 4.084256 4.3488.025613.7465091-1.007057.8800364-1.543962.8996727-.805518.0286364-1.564453-.1636363-2.302737-.4704545v1.8595636c.795273.2266364 1.632166.3218727 2.457694.2937273 1.78216-.0649637 3.424571-.8494364 3.354136-2.9264727"/><path d="m167.759616 39.1267745s.581247-1.362109 2.24847-1.362109c0 0 2.550219-.2027455 2.550219 3.1806v5.7472363h-1.11527v-5.7205636s.16312-2.2585091-1.63889-2.3049818c0 0-1.935035-.0234-1.92399 2.232l-.00032 5.7935454h-1.11303v-8.8193454h.992811z"/><path d="m180.44151 39.1267745s.581247-1.362109 2.248471-1.362109c0 0 2.550219-.2027455 2.550219 3.1806v5.7472363h-1.115271v-5.7205636s.163121-2.2585091-1.638889-2.3049818c0 0-1.935036-.0234-1.92399 2.232l-.00032 5.7935454h-1.11303v-8.8193454h.99281z"/><path d="m174.130362 46.6926h1.146966v-13.0626h-1.146966z"/><path d="m191.870738 40.5694582h-3.883998c.087403-1.2130364.736524-2.0588727 1.995546-2.0588727 1.260622 0 1.888452.8278363 1.888452 2.0588727zm1.098463.7186909c0-1.8954-.793032-3.4944546-2.843004-3.4944546-2.572471 0-3.310275 2.0791637-3.310275 4.3579637 0 2.8696909 1.187627 4.8012545 4.193111 4.8012545.609901 0 1.206195-.0541636 1.796727-.2034v-.7733454c-.503288.1842545-1.025947.2223818-1.545243.2223818-.449662 0-.899484-.1107818-1.313769-.2955273-1.655697-.8086909-2.033164-2.9210727-2.033164-4.6148727z"/><path d="m176.855868 46.6927636h1.017142v-9.0122727h-1.017142z"/><path d="m176.853146 35.0989636h1.019704v-1.4689636h-1.019704z"/><path d="m162.07071 46.0591145c1.70084 0 2.019398-2.1068181 2.019398-3.6865636 0-1.3295454-.145993-3.7462909-1.974736-3.7462909-1.72293 0-1.974735 2.2424727-1.974735 3.8058545 0 1.5355637.362579 3.627 1.930073 3.627zm-.023691.8612182c-1.694917 0-3.007245-1.7692363-3.007245-4.5045818 0-2.9909454 1.476409-4.6507091 3.102812-4.6507091 1.818178 0 3.048385 1.8240546 3.048385 4.5047455 0 3.2462182-1.68147 4.6505454-3.130186 4.6505454z"/></g></g></svg>